<svg width="16" height="17" viewBox="0 0 16 17" fill="none" xmlns="http://www.w3.org/2000/svg">
<path d="M4.41667 7.69667C5.37667 9.58333 6.92 11.1267 8.81 12.0867L10.2767 10.6167C10.46 10.4333 10.7233 10.38 10.9533 10.4533C11.7 10.7 12.5033 10.8333 13.3333 10.8333C13.7033 10.8333 14 11.13 14 11.5V13.8333C14 14.2033 13.7033 14.5 13.3333 14.5C7.07333 14.5 2 9.42667 2 3.16667C2 2.79667 2.3 2.5 2.66667 2.5H5C5.37 2.5 5.66667 2.79667 5.66667 3.16667C5.66667 3.99667 5.8 4.8 6.04667 5.54667C6.12 5.77667 6.06667 6.04 5.88333 6.22333L4.41667 7.69667Z" fill="#9D9B91"/>
</svg>
